<svg xmlns="http://www.w3.org/2000/svg" width="840" height="360" viewBox="0 0 840 360" role="img" aria-labelledby="title desc">
  <title id="title">my bias &lt;3 — Juun</title>
  <desc id="desc">A Fragments UI-inspired profile card for Juun from Hearts2Hearts.</desc>

  <defs>
    <linearGradient id="accent" x1="0" y1="0" x2="1" y2="0">
      <stop offset="0%" stop-color="#8b5cf6" />
      <stop offset="100%" stop-color="#a78bfa" />
    </linearGradient>
    <clipPath id="clip-0"><circle cx="585" cy="178" r="88" /></clipPath>
    <clipPath id="clip-1"><circle cx="434" cy="100" r="45" /></clipPath>
    <clipPath id="clip-2"><circle cx="739" cy="102" r="47" /></clipPath>
    <clipPath id="clip-3"><circle cx="445" cy="274" r="50" /></clipPath>
    <clipPath id="clip-4"><circle cx="738" cy="273" r="52" /></clipPath>
  </defs>

  <rect x="1" y="1" width="838" height="358" rx="18" fill="#0d0f12" stroke="#282c33" stroke-width="1.2" />
  <rect x="22" y="22" width="330" height="316" rx="14" fill="#111318" stroke="#24282f" />

  <g font-family="Inter, ui-sans-serif, -apple-system, BlinkMacSystemFont, 'Segoe UI', sans-serif">
    <text x="44" y="54" fill="#747b86" font-size="10" font-weight="600" letter-spacing="1.8">MY BIAS</text>
    <circle cx="321" cy="48" r="4" fill="#8b5cf6" />

    <text x="42" y="105" fill="#f5f5f6" font-size="36" font-weight="700">Juun &lt;3</text>
    <text x="43" y="132" fill="#979da7" font-size="13">Hearts2Hearts · 03 Dec 2008</text>

    <rect x="42" y="157" width="110" height="25" rx="7" fill="#171a20" stroke="#2c3038" />
    <text x="97" y="173.5" text-anchor="middle" fill="#c9cbd0" font-size="10" font-weight="600">HEARTS2HEARTS</text>

    <rect x="160" y="157" width="58" height="25" rx="7" fill="#1a1626" stroke="#4c3970" />
    <text x="189" y="173.5" text-anchor="middle" fill="#c4b5fd" font-size="10" font-weight="600">JUUN</text>

    <rect x="226" y="157" width="77" height="25" rx="7" fill="#171a20" stroke="#2c3038" />
    <text x="264.5" y="173.5" text-anchor="middle" fill="#c9cbd0" font-size="10" font-weight="600">MY BIAS</text>

    <text x="42" y="222" fill="#e4e5e7" font-size="14" font-weight="500">my favorite in Hearts2Hearts.</text>
    <text x="42" y="247" fill="#a4a9b2" font-size="13">i always end up watching her first —</text>
    <text x="42" y="268" fill="#a4a9b2" font-size="13">her dancing is so clean, and she has</text>
    <text x="42" y="289" fill="#a4a9b2" font-size="13">this cool-but-playful vibe i really like.</text>

    <line x1="42" y1="310" x2="311" y2="310" stroke="#24282f" />
    <text x="42" y="327" fill="#666d77" font-size="10">just a tiny juun corner on my github ♡</text>
  </g>

  <rect x="370" y="22" width="448" height="316" rx="14" fill="#0f1115" stroke="#24282f" />

  <g font-family="Inter, ui-sans-serif, -apple-system, BlinkMacSystemFont, 'Segoe UI', sans-serif">
    <text x="392" y="53" fill="#e5e7eb" font-size="12" font-weight="600">favorite frames</text>
    <text x="796" y="53" text-anchor="end" fill="#666d77" font-size="10">01 — 05</text>
    <line x1="392" y1="68" x2="796" y2="68" stroke="#24282f" />
  </g>

  <g font-family="ui-monospace, SFMono-Regular, Menlo, monospace">
    <g>
      <circle cx="585" cy="178" r="93" fill="#171a20" stroke="#8b5cf6" stroke-width="1" />
      <circle cx="585" cy="178" r="88" fill="#111318" />
      <text x="585" y="182" text-anchor="middle" fill="#737983" font-size="12">JUUN 01</text>
      <circle cx="585" cy="178" r="88" fill="none" stroke="#ffffff" stroke-opacity="0.08" />
    </g>

    <g>
      <circle cx="434" cy="100" r="50" fill="#171a20" stroke="#30343b" stroke-width="1" />
      <circle cx="434" cy="100" r="45" fill="#111318" />
      <text x="434" y="104" text-anchor="middle" fill="#737983" font-size="10">02</text>
      <circle cx="434" cy="100" r="45" fill="none" stroke="#ffffff" stroke-opacity="0.08" />
    </g>

    <g>
      <circle cx="739" cy="102" r="52" fill="#171a20" stroke="#30343b" stroke-width="1" />
      <circle cx="739" cy="102" r="47" fill="#111318" />
      <text x="739" y="106" text-anchor="middle" fill="#737983" font-size="10">03</text>
      <circle cx="739" cy="102" r="47" fill="none" stroke="#ffffff" stroke-opacity="0.08" />
    </g>

    <g>
      <circle cx="445" cy="274" r="55" fill="#171a20" stroke="#30343b" stroke-width="1" />
      <circle cx="445" cy="274" r="50" fill="#111318" />
      <text x="445" y="278" text-anchor="middle" fill="#737983" font-size="10">04</text>
      <circle cx="445" cy="274" r="50" fill="none" stroke="#ffffff" stroke-opacity="0.08" />
    </g>

    <g>
      <circle cx="738" cy="273" r="57" fill="#171a20" stroke="#30343b" stroke-width="1" />
      <circle cx="738" cy="273" r="52" fill="#111318" />
      <text x="738" y="277" text-anchor="middle" fill="#737983" font-size="10">05</text>
      <circle cx="738" cy="273" r="52" fill="none" stroke="#ffffff" stroke-opacity="0.08" />
    </g>
  </g>

  <g font-family="ui-monospace, SFMono-Regular, Menlo, monospace" font-size="9">
    <rect x="390" y="314" width="74" height="18" rx="6" fill="#15181d" stroke="#292d34" />
    <text x="427" y="326.5" text-anchor="middle" fill="#777e88">FRAGMENT 01</text>

    <rect x="704" y="314" width="94" height="18" rx="6" fill="#15181d" stroke="#292d34" />
    <text x="751" y="326.5" text-anchor="middle" fill="#777e88">JUUN GALLERY</text>
  </g>

  <rect x="370" y="337" width="448" height="1" fill="url(#accent)" opacity="0.72" />
</svg>
